HIERARCHY
ROOT Hips
{
  OFFSET 4.37462 39.1106 -19.7285
  CHANNELS 6 Xposition Yposition Zposition Zrotation Xrotation Yrotation
  JOINT LeftHip
  {
    OFFSET 3.43 1.06581e-013 7.10543e-015
    CHANNELS 6 Xposition Yposition Zposition Zrotation Xrotation Yrotation
    JOINT LeftKnee
    {
      OFFSET -3.55271e-015 -18.47 4.44089e-015
      CHANNELS 6 Xposition Yposition Zposition Zrotation Xrotation Yrotation
      JOINT LeftAnkle
      {
        OFFSET 7.10543e-015 -17.95 -1.77636e-015
        CHANNELS 6 Xposition Yposition Zposition Zrotation Xrotation Yrotation
        End Site
        {
          OFFSET 0 -3.12 0
        }
      }
    }
  }
  JOINT RightHip
  {
    OFFSET -3.43 -1.7053e-013 -4.9738e-014
    CHANNELS 6 Xposition Yposition Zposition Zrotation Xrotation Yrotation
    JOINT RightKnee
    {
      OFFSET -1.77636e-015 -18.47 -4.44089e-015
      CHANNELS 6 Xposition Yposition Zposition Zrotation Xrotation Yrotation
      JOINT RightAnkle
      {
        OFFSET -1.24345e-014 -17.95 0
        CHANNELS 6 Xposition Yposition Zposition Zrotation Xrotation Yrotation
        End Site
        {
          OFFSET 0 -3.12 0
        }
      }
    }
  }
  JOINT Chest
  {
    OFFSET -1.59872e-014 4.57 -2.13163e-014
    CHANNELS 6 Xposition Yposition Zposition Zrotation Xrotation Yrotation
    JOINT Chest2
    {
      OFFSET 3.55271e-015 6.57 8.88178e-015
      CHANNELS 6 Xposition Yposition Zposition Zrotation Xrotation Yrotation
      JOINT LeftCollar
      {
        OFFSET 1.06 4.19 1.76
        CHANNELS 6 Xposition Yposition Zposition Zrotation Xrotation Yrotation
        JOINT LeftShoulder
        {
          OFFSET 5.81 -1.06581e-013 3.9968e-015
          CHANNELS 6 Xposition Yposition Zposition Zrotation Xrotation Yrotation
          JOINT LeftElbow
          {
            OFFSET 2.13163e-014 -12.08 -5.32907e-014
            CHANNELS 6 Xposition Yposition Zposition Zrotation Xrotation Yrotation
            JOINT LeftWrist
            {
              OFFSET 7.10543e-015 -9.82 -2.22045e-015
              CHANNELS 6 Xposition Yposition Zposition Zrotation Xrotation Yrotation
              End Site
              {
                OFFSET 0 -7.37 0
              }
            }
          }
        }
      }
      JOINT RightCollar
      {
        OFFSET -1.06 4.19 1.76
        CHANNELS 6 Xposition Yposition Zposition Zrotation Xrotation Yrotation
        JOINT RightShoulder
        {
          OFFSET -6.06 4.9738e-014 -4.79616e-014
          CHANNELS 6 Xposition Yposition Zposition Zrotation Xrotation Yrotation
          JOINT RightElbow
          {
            OFFSET 2.13163e-014 -11.08 -1.35003e-013
            CHANNELS 6 Xposition Yposition Zposition Zrotation Xrotation Yrotation
            JOINT RightWrist
            {
              OFFSET 1.42109e-014 -9.82 -1.77636e-015
              CHANNELS 6 Xposition Yposition Zposition Zrotation Xrotation Yrotation
              End Site
              {
                OFFSET 0 -7.14001 0
              }
            }
          }
        }
      }
      JOINT Neck
      {
        OFFSET 3.90799e-014 4.05 8.21565e-015
        CHANNELS 6 Xposition Yposition Zposition Zrotation Xrotation Yrotation
        JOINT Head
        {
          OFFSET 3.55271e-015 5.19 -1.77636e-015
          CHANNELS 6 Xposition Yposition Zposition Zrotation Xrotation Yrotation
          End Site
          {
            OFFSET 0 4.14001 0
          }
        }
      }
    }
  }
}
MOTION
Frames:	10
Frame Time:	0.0333333
18.2955 39.1906 -6.11384 0.325193 -0.00187163 -0.0827301 3.43 2.97096e-013 3.45509e-014 3.25267 -4.26506 5.54721 -3.55271e-015 -18.47 4.44089e-015 1.80614 19.7778 15.1285 7.10543e-015 -17.95 -1.77636e-015 -8.94549 -13.2529 -1.0413 -3.43 -3.5083e-014 -6.35321e-016 -5.54286 -4.11341 -7.41321 -1.77636e-015 -18.47 -4.44089e-015 -0.658136 19.8431 -7.06418 -1.24345e-014 -17.95 0 7.32179 -14.2299 0.915143 -7.56745e-016 4.57 -8.8181e-016 -0.197412 -4.86702 0.0526711 3.55271e-015 6.57 8.88178e-015 -0.183623 -4.44874 0.0329247 1.06 4.19 1.76 10.0127 0.469287 1.773 5.81 -1.54455e-014 3.9968e-015 82.7369 -3.37177 13.4981 2.13163e-014 -12.08 3.40299e-015 -3.60533 -1.57808 -14.5352 7.10543e-015 -9.82 -2.22045e-015 -0.897478 -2.05677 -0.0161106 -1.06 4.19 1.76 -9.2192 0.52995 -2.50737 -6.06 -5.9952e-014 2.48003e-014 -91.6311 8.92578 -12.1019 2.13163e-014 -11.08 8.88298e-015 8.54641 -2.14074 16.3337 1.42109e-014 -9.82 -1.77636e-015 -0.844265 -2.33806 -0.0172359 3.90799e-014 4.05 8.21565e-015 0.0782251 17.4179 -0.017002 3.55271e-015 5.19 -1.77636e-015 -0.0259752 -3.01089 0.00066417 
18.2923 39.1892 -6.14544 0.296192 -0.0664916 -0.114278 3.43 1.59872e-013 3.45169e-014 3.27766 -4.29889 5.54465 -3.55271e-015 -18.47 4.44089e-015 1.8391 19.8812 15.1378 7.10543e-015 -17.95 -1.77636e-015 -8.96839 -13.2511 -1.04383 -3.43 3.15747e-013 -2.06789e-016 -5.48549 -4.13519 -7.35359 -1.77636e-015 -18.47 -4.44089e-015 -0.716302 19.895 -7.08772 -1.24345e-014 -17.95 0 7.3477 -14.1979 0.916304 -4.04286e-015 4.57 -8.37348e-016 -0.17505 -4.78863 0.0257974 3.55271e-015 6.57 8.88178e-015 -0.16124 -4.37726 0.0100637 1.06 4.19 1.76 10.0958 0.474269 1.84168 5.81 -1.47588e-013 3.9968e-015 82.6136 -3.37254 13.4653 2.13163e-014 -12.08 2.94126e-015 -3.59942 -1.59316 -14.4945 7.10543e-015 -9.82 -2.22045e-015 -0.819483 -2.0716 -0.014814 -1.06 4.19 1.76 -9.31702 0.527709 -2.49257 -6.06 9.40976e-014 2.44292e-014 -91.579 8.8622 -12.3123 2.13163e-014 -11.08 8.85679e-015 8.49622 -2.13292 16.6735 1.42109e-014 -9.82 -1.77636e-015 -0.68659 -2.17292 -0.0130666 3.90799e-014 4.05 8.21565e-015 0.0233221 17.393 -0.0144815 3.55271e-015 5.19 -1.77636e-015 0.0357313 -3.03182 -0.0338429 
18.2873 39.1872 -6.1839 0.284249 -0.154187 -0.171066 3.43 -1.91847e-013 3.46715e-014 3.29686 -4.31792 5.55499 -3.55271e-015 -18.47 4.44089e-015 1.85753 19.9847 15.1699 7.10543e-015 -17.95 -1.77636e-015 -8.98894 -13.2379 -1.04517 -3.43 2.97984e-013 1.19796e-016 -5.44637 -4.17439 -7.30332 -1.77636e-015 -18.47 -4.44089e-015 -0.771992 19.9984 -7.06819 -1.24345e-014 -17.95 0 7.35691 -14.1828 0.916469 -9.61474e-015 4.57 -7.50843e-016 -0.187932 -4.68857 0.0408883 3.55271e-015 6.57 8.88178e-015 -0.17417 -4.28609 0.0210514 1.06 4.19 1.76 10.2242 0.471882 1.83825 5.81 -2.42373e-013 3.9968e-015 82.5259 -3.36784 13.5491 2.13163e-014 -12.08 2.264e-015 -3.54272 -1.5995 -14.5825 7.10543e-015 -9.82 -2.22045e-015 -0.903826 -2.08372 -0.016446 -1.06 4.19 1.76 -9.20985 0.524742 -2.44449 -6.06 2.41359e-013 2.37483e-014 -91.7506 8.86708 -12.2366 2.13163e-014 -11.08 8.79258e-015 8.52136 -2.12807 16.5738 1.42109e-014 -9.82 -1.77636e-015 -0.690052 -2.08928 -0.0125558 3.90799e-014 4.05 8.21565e-015 0.127662 17.3997 -0.0878059 3.55271e-015 5.19 -1.77636e-015 -0.118645 -3.25453 -0.0275048 
18.2917 39.1932 -6.2112 0.371407 -0.177629 -0.124871 3.43 -1.02141e-014 3.50137e-014 3.18598 -4.21278 5.48369 -3.55271e-015 -18.47 4.44089e-015 1.85144 19.7922 14.994 7.10543e-015 -17.95 -1.77636e-015 -8.90125 -13.1694 -1.02957 -3.43 1.0747e-013 3.45592e-016 -5.5313 -4.19541 -7.3263 -1.77636e-015 -18.47 -4.44089e-015 -0.799241 20.0169 -7.05434 -1.24345e-014 -17.95 0 7.36679 -14.1547 0.915865 -1.73791e-014 4.57 -6.22599e-016 -0.27205 -4.64953 0.0397769 3.55271e-015 6.57 8.88178e-015 -0.250674 -4.25052 0.0127111 1.06 4.19 1.76 10.2787 0.462661 1.74828 5.81 -3.35254e-013 3.9968e-015 82.5697 -3.33511 13.6399 2.13163e-014 -12.08 1.37226e-015 -3.5037 -1.58514 -14.7404 7.10543e-015 -9.82 -2.22045e-015 -1.0685 -2.06569 -0.019254 -1.06 4.19 1.76 -9.17813 0.528366 -2.48334 -6.06 2.94102e-013 2.27599e-014 -91.7712 8.84706 -12.0868 2.13163e-014 -11.08 8.69053e-015 8.56444 -2.13432 16.3067 1.42109e-014 -9.82 -1.77636e-015 -0.917288 -2.16682 -0.0173462 3.90799e-014 4.05 8.21565e-015 0.283724 17.4125 -0.147795 3.55271e-015 5.19 -1.77636e-015 -0.342425 -3.49165 0.0213619 
18.2928 39.1998 -6.23592 0.437495 -0.226106 -0.0138162 3.43 3.28182e-013 3.55426e-014 3.11583 -4.16754 5.44733 -3.55271e-015 -18.47 4.44089e-015 1.83843 19.6659 14.9369 7.10543e-015 -17.95 -1.77636e-015 -8.83627 -13.0608 -1.01348 -3.43 3.15303e-013 4.71754e-016 -5.59723 -4.16133 -7.37405 -1.77636e-015 -18.47 -4.44089e-015 -0.791863 20.0022 -7.12498 -1.24345e-014 -17.95 0 7.36565 -14.1148 0.913118 -2.72426e-014 4.57 -4.5292e-016 -0.30418 -4.59449 -0.0420409 3.55271e-015 6.57 8.88178e-015 -0.273585 -4.20039 -0.0607049 1.06 4.19 1.76 10.0995 0.464134 1.73267 5.81 -4.26245e-013 3.9968e-015 82.7444 -3.28625 13.6798 2.13163e-014 -12.08 2.67083e-016 -3.50701 -1.56193 -14.608 7.10543e-015 -9.82 -2.22045e-015 -0.995517 -1.95612 -0.0170116 -1.06 4.19 1.76 -9.37029 0.529779 -2.52296 -6.06 3.0952e-013 2.14662e-014 -91.6458 8.76398 -12.183 2.13163e-014 -11.08 8.55078e-015 8.54709 -2.12453 16.8462 1.42109e-014 -9.82 -1.77636e-015 -1.13937 -2.42945 -0.0242507 3.90799e-014 4.05 8.21565e-015 0.209984 17.3877 -0.0732546 3.55271e-015 5.19 -1.77636e-015 -0.319735 -3.5533 0.0620495 
18.2811 39.1967 -6.26681 0.386722 -0.278207 0.0750518 3.43 2.98872e-013 3.62573e-014 3.23768 -4.32649 5.53436 -3.55271e-015 -18.47 4.44089e-015 1.80562 19.8819 14.9385 7.10543e-015 -17.95 -1.77636e-015 -8.84446 -13.0514 -1.0137 -3.43 1.60316e-013 4.99438e-016 -5.51182 -4.17331 -7.33792 -1.77636e-015 -18.47 -4.44089e-015 -0.807946 20.0612 -7.27815 -1.24345e-014 -17.95 0 7.38051 -14.1003 0.914016 -3.9112e-014 4.57 -2.42113e-016 -0.27494 -4.52619 -0.127511 3.55271e-015 6.57 8.88178e-015 -0.240523 -4.13816 -0.133767 1.06 4.19 1.76 10.0395 0.472973 1.8177 5.81 -5.15361e-013 3.9968e-015 82.8569 -3.3171 13.6417 2.13163e-014 -12.08 -1.05048e-015 -3.55 -1.54558 -14.6672 7.10543e-015 -9.82 -2.22045e-015 -1.08924 -1.9828 -0.0189549 -1.06 4.19 1.76 -9.46103 0.527766 -2.50961 -6.06 2.94134e-013 1.98694e-014 -91.6186 8.69 -12.3066 2.13163e-014 -11.08 8.37348e-015 8.52006 -2.11915 17.191 1.42109e-014 -9.82 -1.77636e-015 -1.17718 -2.57499 -0.026443 3.90799e-014 4.05 8.21565e-015 0.195252 17.3252 -0.0478441 3.55271e-015 5.19 -1.77636e-015 -0.420431 -3.49185 0.117859 
18.2751 39.1901 -6.30499 0.369322 -0.299612 0.149505 3.43 1.29674e-013 3.71569e-014 3.26927 -4.45935 5.51507 -3.55271e-015 -18.47 4.44089e-015 1.8262 20.0741 14.8283 7.10543e-015 -17.95 -1.77636e-015 -8.85014 -13.0983 -1.01803 -3.43 -1.69642e-013 4.29801e-016 -5.48476 -4.26124 -7.31266 -1.77636e-015 -18.47 -4.44089e-015 -0.824591 20.2079 -7.33245 -1.24345e-014 -17.95 0 7.39611 -14.1342 0.918172 -5.28939e-014 4.57 9.51876e-018 -0.280114 -4.44689 -0.161876 3.55271e-015 6.57 8.88178e-015 -0.242677 -4.06597 -0.165446 1.06 4.19 1.76 10.1387 0.474427 1.85096 5.81 -6.02616e-013 3.9968e-015 82.8613 -3.36987 13.6276 2.13163e-014 -12.08 -2.57938e-015 -3.56363 -1.55277 -14.7771 7.10543e-015 -9.82 -2.22045e-015 -1.28165 -2.07464 -0.0231552 -1.06 4.19 1.76 -9.46442 0.531318 -2.55109 -6.06 2.54463e-013 1.79719e-014 -91.6067 8.60674 -12.4726 2.13163e-014 -11.08 8.1588e-015 8.48236 -2.12281 17.1902 1.42109e-014 -9.82 -1.77636e-015 -1.0645 -2.51315 -0.0233517 3.90799e-014 4.05 8.21565e-015 0.265714 17.2467 -0.0966671 3.55271e-015 5.19 -1.77636e-015 -0.565222 -3.56595 0.138081 
18.2698 39.1903 -6.34426 0.404284 -0.241428 0.199843 3.43 -9.50351e-014 3.82404e-014 3.2416 -4.59979 5.47832 -3.55271e-015 -18.47 4.44089e-015 1.8156 20.1001 14.8415 7.10543e-015 -17.95 -1.77636e-015 -8.82925 -13.0461 -1.01155 -3.43 -2.50022e-013 2.64e-016 -5.51661 -4.41327 -7.33002 -1.77636e-015 -18.47 -4.44089e-015 -0.800355 20.3119 -7.3689 -1.24345e-014 -17.95 0 7.36522 -14.1456 0.915077 -6.84951e-014 4.57 3.01669e-016 -0.31418 -4.43651 -0.152921 3.55271e-015 6.57 8.88178e-015 -0.274246 -4.05662 -0.159045 1.06 4.19 1.76 10.2258 0.475243 1.87398 5.81 -6.88024e-013 3.9968e-015 82.8364 -3.48856 13.6254 2.13163e-014 -12.08 -4.31858e-015 -3.58326 -1.56699 -14.6397 7.10543e-015 -9.82 -2.22045e-015 -1.12096 -1.96284 -0.0192938 -1.06 4.19 1.76 -9.49049 0.532193 -2.56403 -6.06 1.97029e-013 1.57757e-014 -91.5776 8.58656 -12.4148 2.13163e-014 -11.08 7.90689e-015 8.51204 -2.12246 16.9903 1.42109e-014 -9.82 -1.77636e-015 -1.15406 -2.49269 -0.0250963 3.90799e-014 4.05 8.21565e-015 0.293171 17.215 -0.154684 3.55271e-015 5.19 -1.77636e-015 -0.62456 -3.58829 0.110104 
18.2603 39.2007 -6.37773 0.397305 -0.192711 0.257955 3.43 -1.34566e-013 3.9507e-014 3.297 -4.62373 5.52966 -3.55271e-015 -18.47 4.44089e-015 1.74542 19.96 14.6871 7.10543e-015 -17.95 -1.77636e-015 -8.73482 -12.959 -0.993944 -3.43 9.19265e-014 3.1894e-018 -5.48182 -4.45297 -7.32135 -1.77636e-015 -18.47 -4.44089e-015 -0.783935 20.19 -7.46578 -1.24345e-014 -17.95 0 7.32918 -14.0328 0.903261 -8.58223e-014 4.57 6.34033e-016 -0.306818 -4.45532 -0.158032 3.55271e-015 6.57 8.88178e-015 -0.267159 -4.07367 -0.16149 1.06 4.19 1.76 10.1605 0.476474 1.87607 5.81 -7.716e-013 3.9968e-015 82.9243 -3.54683 13.5661 2.13163e-014 -12.08 -6.26703e-015 -3.6278 -1.57009 -14.7356 7.10543e-015 -9.82 -2.22045e-015 -1.01317 -1.96539 -0.017397 -1.06 4.19 1.76 -9.58432 0.52874 -2.53452 -6.06 1.28352e-013 1.32832e-014 -91.508 8.57398 -12.3414 2.13163e-014 -11.08 7.6179e-015 8.55502 -2.12471 16.5177 1.42109e-014 -9.82 -1.77636e-015 -1.13515 -2.48684 -0.0245904 3.90799e-014 4.05 8.21565e-015 0.245279 17.2848 -0.199781 3.55271e-015 5.19 -1.77636e-015 -0.555316 -3.54498 0.0380505 
18.2548 39.2047 -6.41002 0.369171 -0.181412 0.318076 3.43 -1.4049e-013 4.09556e-014 3.33571 -4.70412 5.53711 -3.55271e-015 -18.47 4.44089e-015 1.73802 19.9769 14.6601 7.10543e-015 -17.95 -1.77636e-015 -8.70891 -12.9133 -0.987437 -3.43 3.31291e-013 -3.51473e-016 -5.44282 -4.49238 -7.31454 -1.77636e-015 -18.47 -4.44089e-015 -0.761516 20.1521 -7.57142 -1.24345e-014 -17.95 0 7.30824 -13.9623 0.89609 -1.04782e-013 4.57 1.00631e-015 -0.295075 -4.43767 -0.139865 3.55271e-015 6.57 8.88178e-015 -0.257898 -4.05749 -0.14455 1.06 4.19 1.76 10.1231 0.46497 1.74619 5.81 -8.53359e-013 3.9968e-015 82.9978 -3.50026 13.5752 2.13163e-014 -12.08 -8.42369e-015 -3.59638 -1.59912 -14.9309 7.10543e-015 -9.82 -2.22045e-015 -0.85193 -2.04192 -0.015197 -1.06 4.19 1.76 -9.60725 0.533277 -2.58888 -6.06 5.49519e-014 1.04966e-014 -91.4684 8.53031 -12.4491 2.13163e-014 -11.08 7.29198e-015 8.5166 -2.13414 16.5329 1.42109e-014 -9.82 -1.77636e-015 -0.826683 -2.32896 -0.0169382 3.90799e-014 4.05 8.21565e-015 0.23826 17.3282 -0.220338 3.55271e-015 5.19 -1.77636e-015 -0.462938 -3.59148 -0.0041018 
